<svg width="900" height="300" viewBox="0 0 900 300" xmlns="http://www.w3.org/2000/svg" font-family="'Courier New', monospace">
  <defs>
    <filter id="grain2">
      <feTurbulence type="fractalNoise" baseFrequency="0.9" numOctaves="2" stitchTiles="stitch" result="n"/>
      <feColorMatrix in="n" type="matrix" values="0 0 0 0 0  0 0 0 0 0  0 0 0 0 0  0 0 0 0.04 0"/>
    </filter>
    <linearGradient id="vig2" x1="0" y1="0" x2="0" y2="1">
      <stop offset="0" stop-color="#cfc8ad"/>
      <stop offset="1" stop-color="#bcb597"/>
    </linearGradient>
  </defs>

  <rect width="900" height="300" fill="url(#vig2)"/>
  <rect width="900" height="300" filter="url(#grain2)"/>

  <!-- header -->
  <text x="40" y="44" fill="#454138" font-size="16" letter-spacing="8" font-weight="bold">[ ARCHIVE ]</text>
  <text x="860" y="44" fill="#6b6657" font-size="10" letter-spacing="3" text-anchor="end">6 RECORDS &#183; SORT: RECENT</text>
  <line x1="40" y1="56" x2="860" y2="56" stroke="#4e4b42" stroke-width="0.8" opacity="0.5"/>

  <!-- selected row -->
  <rect x="40" y="68" width="820" height="30" fill="#4e4b42"/>
  <text x="54" y="88" fill="#cfc8ad" font-size="13" letter-spacing="2">&#9658; metrolist</text>
  <text x="430" y="88" fill="#cfc8ad" font-size="12" opacity="0.85">youtube music client</text>
  <text x="846" y="88" fill="#cfc8ad" font-size="11" letter-spacing="2" text-anchor="end">KOTLIN</text>

  <!-- rows -->
  <g font-size="13" letter-spacing="2" fill="#454138">
    <text x="54"  y="124">algorithm-visualizer</text>
    <text x="54"  y="156">terminal-quizzer</text>
    <text x="54"  y="188">grpproject</text>
    <text x="54"  y="220">slotshare</text>
    <text x="54"  y="252">timer</text>
  </g>
  <g font-size="12" fill="#5f5b50">
    <text x="430" y="124">algorithm visualizer, but nier</text>
    <text x="430" y="156">mcq quiz platform</text>
    <text x="430" y="188">rainfall prediction &amp; more</text>
    <text x="430" y="220">slot-based sharing</text>
    <text x="430" y="252">adhd timer + obsidian logging</text>
  </g>
  <g font-size="11" letter-spacing="2" fill="#6b6657" text-anchor="end">
    <text x="846" y="124">TS</text>
    <text x="846" y="156">PYTHON</text>
    <text x="846" y="188">TS</text>
    <text x="846" y="220">JS</text>
    <text x="846" y="252">PYTHON</text>
  </g>

  <!-- row separators -->
  <g stroke="#4e4b42" stroke-width="0.4" opacity="0.25">
    <line x1="40" y1="136" x2="860" y2="136"/>
    <line x1="40" y1="168" x2="860" y2="168"/>
    <line x1="40" y1="200" x2="860" y2="200"/>
    <line x1="40" y1="232" x2="860" y2="232"/>
  </g>

  <!-- footer -->
  <line x1="40" y1="270" x2="860" y2="270" stroke="#4e4b42" stroke-width="0.8" opacity="0.5"/>
  <text x="40" y="290" fill="#6b6657" font-size="10" letter-spacing="2">[A] OPEN&#160;&#160;&#160;[B] BACK&#160;&#160;&#160;[&#9608;] DETAILS</text>
  <text x="860" y="290" fill="#6b6657" font-size="10" letter-spacing="3" text-anchor="end">github.com/amorfati3735</text>
</svg>
