<svg width="900" height="220" viewBox="0 0 900 220" xmlns="http://www.w3.org/2000/svg" font-family="'Courier New', monospace">
  <!-- ============================================================
       BANNER  ·  edit name / role / status below
       palette: parchment #c6bfa3 · ink #454138 · muted #6b6657
       ============================================================ -->
  <defs>
    <filter id="grain">
      <feTurbulence type="fractalNoise" baseFrequency="0.9" numOctaves="2" stitchTiles="stitch" result="n"/>
      <feColorMatrix in="n" type="matrix" values="0 0 0 0 0  0 0 0 0 0  0 0 0 0 0  0 0 0 0.04 0"/>
    </filter>
    <linearGradient id="vig" x1="0" y1="0" x2="0" y2="1">
      <stop offset="0" stop-color="#cfc8ad"/>
      <stop offset="0.5" stop-color="#c6bfa3"/>
      <stop offset="1" stop-color="#bcb597"/>
    </linearGradient>
    <clipPath id="frame"><rect x="0" y="0" width="900" height="220"/></clipPath>
  </defs>

  <rect width="900" height="220" fill="url(#vig)"/>
  <rect width="900" height="220" filter="url(#grain)"/>

  <!-- moving scanline -->
  <g clip-path="url(#frame)">
    <rect x="0" y="0" width="900" height="2" fill="#4e4b42" opacity="0.12">
      <animate attributeName="y" values="-4;220" dur="5.5s" repeatCount="indefinite"/>
    </rect>
  </g>

  <!-- frame + corner brackets -->
  <rect x="16" y="16" width="868" height="188" fill="none" stroke="#4e4b42" stroke-width="1" opacity="0.55"/>
  <rect x="20" y="20" width="860" height="180" fill="none" stroke="#4e4b42" stroke-width="0.4" opacity="0.3"/>
  <g stroke="#4e4b42" stroke-width="2" fill="none">
    <path d="M16 44 L16 16 L44 16"/>
    <path d="M856 16 L884 16 L884 44"/>
    <path d="M884 176 L884 204 L856 204"/>
    <path d="M44 204 L16 204 L16 176"/>
  </g>

  <!-- top status bar -->
  <text x="40" y="46" fill="#4e4b42" font-size="11" letter-spacing="4" opacity="0.85">// SOFTWARE ENGINEER</text>
  <text x="860" y="46" fill="#4e4b42" font-size="11" letter-spacing="3" text-anchor="end" opacity="0.8">
    STATUS: OPEN TO WORK
    <animate attributeName="opacity" values="0.8;0.3;0.8" dur="2.6s" repeatCount="indefinite"/>
  </text>
  <line x1="40" y1="56" x2="860" y2="56" stroke="#4e4b42" stroke-width="0.6" opacity="0.4"/>

  <!-- name -->
  <text x="450" y="128" fill="#454138" font-size="56" font-weight="bold" letter-spacing="12"
        text-anchor="middle" font-family="'Helvetica Neue','Segoe UI',Arial,sans-serif">PRATIK AMBASTHA</text>

  <!-- subtitle -->
  <text x="450" y="156" fill="#5f5b50" font-size="12" letter-spacing="7" text-anchor="middle">FULL-STACK&#160;&#183;&#160;AI / AGENTS&#160;&#183;&#160;SYSTEMS</text>

  <!-- divider with diamond -->
  <line x1="150" y1="180" x2="430" y2="180" stroke="#4e4b42" stroke-width="0.8" opacity="0.5"/>
  <line x1="470" y1="180" x2="750" y2="180" stroke="#4e4b42" stroke-width="0.8" opacity="0.5"/>
  <rect x="444" y="174" width="12" height="12" fill="#4e4b42" transform="rotate(45 450 180)">
    <animate attributeName="opacity" values="1;0.3;1" dur="3s" repeatCount="indefinite"/>
  </rect>
</svg>
